<svg width="19" height="25" viewBox="0 0 19 25" fill="none" xmlns="http://www.w3.org/2000/svg">
<g id="01 align center">
<path id="Vector" d="M18.875 25.0005H16.7917V19.7474C16.7908 18.9307 16.4661 18.1478 15.8886 17.5703C15.3111 16.9928 14.5281 16.668 13.7115 16.6672H5.28854C4.47187 16.668 3.68889 16.9928 3.11142 17.5703C2.53395 18.1478 2.20916 18.9307 2.20833 19.7474V25.0005H0.125V19.7474C0.126654 18.3785 0.671199 17.066 1.63919 16.0981C2.60719 15.1301 3.91959 14.5855 5.28854 14.5839H13.7115C15.0804 14.5855 16.3928 15.1301 17.3608 16.0981C18.3288 17.066 18.8733 18.3785 18.875 19.7474V25.0005Z" fill="currentColor"/>
<path id="Vector_2" d="M9.49994 12.4999C8.26381 12.4999 7.05544 12.1333 6.02763 11.4466C4.99982 10.7598 4.19874 9.78369 3.72569 8.64165C3.25265 7.49961 3.12888 6.24295 3.37003 5.03057C3.61119 3.81819 4.20645 2.70454 5.08052 1.83046C5.9546 0.956385 7.06825 0.36113 8.28063 0.119973C9.49301 -0.121185 10.7497 0.00258597 11.8917 0.475634C13.0338 0.948681 14.0099 1.74976 14.6966 2.77757C15.3834 3.80537 15.7499 5.01375 15.7499 6.24988C15.7483 7.90698 15.0893 9.49573 13.9175 10.6675C12.7458 11.8392 11.157 12.4982 9.49994 12.4999V12.4999ZM9.49994 2.08321C8.67585 2.08321 7.87027 2.32758 7.18507 2.78542C6.49986 3.24326 5.96581 3.89401 5.65044 4.65537C5.33508 5.41673 5.25256 6.2545 5.41334 7.06276C5.57411 7.87101 5.97095 8.61344 6.55366 9.19616C7.13638 9.77888 7.87881 10.1757 8.68707 10.3365C9.49532 10.4973 10.3331 10.4147 11.0945 10.0994C11.8558 9.78401 12.5066 9.24996 12.9644 8.56476C13.4222 7.87955 13.6666 7.07397 13.6666 6.24988C13.6666 5.14481 13.2276 4.085 12.4462 3.3036C11.6648 2.5222 10.605 2.08321 9.49994 2.08321Z" fill="currentColor"/>
</g>
</svg>
