<svg width="25" height="25" viewBox="0 0 25 25" fill="none" xmlns="http://www.w3.org/2000/svg">
<g id="fi-rs-hourglass-end" clip-path="url(#clip0_8_107)">
<path id="Vector" d="M21.875 25H3.125V21.875C3.18729 20.0736 3.63208 18.306 4.42984 16.6896C5.2276 15.0733 6.36008 13.6451 7.75208 12.5C6.36008 11.3549 5.2276 9.9267 4.42984 8.31035C3.63208 6.694 3.18729 4.92643 3.125 3.125C3.125 2.2962 3.45424 1.50134 4.04029 0.915291C4.62634 0.32924 5.4212 0 6.25 0L18.75 0C19.5788 0 20.3737 0.32924 20.9597 0.915291C21.5458 1.50134 21.875 2.2962 21.875 3.125C21.8135 4.92478 21.3709 6.69104 20.5763 8.3071C19.7817 9.92317 18.6533 11.3523 17.2656 12.5C18.6533 13.6477 19.7817 15.0768 20.5763 16.6929C21.3709 18.309 21.8135 20.0752 21.875 21.875V25ZM5.20833 22.9167H19.7917V21.875C19.7917 17.9437 17.1875 15.05 15.0083 13.3156L13.9833 12.5L15.0083 11.6844C17.1875 9.95 19.7917 7.05625 19.7917 3.125C19.7917 2.84873 19.6819 2.58378 19.4866 2.38843C19.2912 2.19308 19.0263 2.08333 18.75 2.08333H6.25C5.97373 2.08333 5.70878 2.19308 5.51343 2.38843C5.31808 2.58378 5.20833 2.84873 5.20833 3.125C5.20833 7.05625 7.82083 9.94896 10.0125 11.6833L11.0417 12.5L10.0094 13.3167C7.82083 15.051 5.20833 17.9437 5.20833 21.875V22.9167ZM12.5187 16.6479C13.2881 17.2508 13.9693 17.9584 14.5427 18.75H10.4875L12.5187 16.6479ZM12.5146 14.076C10.8094 15.1937 7.90104 17.5448 7.375 20.8333H17.6271C17.1063 17.5167 14.2021 15.1771 12.5146 14.076V14.076Z" fill="currentColor"/>
</g>
<defs>
<clipPath id="clip0_8_107">
<rect width="25" height="25" fill="white"/>
</clipPath>
</defs>
</svg>
