<svg width="25" height="25" viewBox="0 0 25 25" fill="none" xmlns="http://www.w3.org/2000/svg">
<g id="01 align center">
<path id="Vector" d="M13.8937 0.867878C13.5112 0.523541 13.0147 0.333008 12.5 0.333008C11.9853 0.333008 11.4888 0.523541 11.1062 0.867878L0 10.8637V21.697C0 22.5811 0.351189 23.4289 0.976311 24.0541C1.60143 24.6792 2.44928 25.0304 3.33333 25.0304H21.6667C22.5507 25.0304 23.3986 24.6792 24.0237 24.0541C24.6488 23.4289 25 22.5811 25 21.697V10.8637L13.8937 0.867878ZM15.625 22.9439H9.375V17.7085C9.375 16.8797 9.70424 16.0848 10.2903 15.4988C10.8763 14.9127 11.6712 14.5835 12.5 14.5835C13.3288 14.5835 14.1237 14.9127 14.7097 15.4988C15.2958 16.0848 15.625 16.8797 15.625 17.7085V22.9439ZM22.9167 21.6939C22.9167 22.0254 22.785 22.3434 22.5506 22.5778C22.3161 22.8122 21.9982 22.9439 21.6667 22.9439H17.7083V17.7085C17.7083 16.3272 17.1596 15.0024 16.1828 14.0257C15.2061 13.0489 13.8813 12.5002 12.5 12.5002C11.1187 12.5002 9.7939 13.0489 8.81715 14.0257C7.8404 15.0024 7.29167 16.3272 7.29167 17.7085V22.9439H3.33333C3.00181 22.9439 2.68387 22.8122 2.44945 22.5778C2.21503 22.3434 2.08333 22.0254 2.08333 21.6939V11.7908L12.5 2.41579L22.9167 11.7908V21.6939Z" fill="currentColor"/>
</g>
</svg>
