<svg width="25" height="25" viewBox="0 0 25 25" fill="none" xmlns="http://www.w3.org/2000/svg">
<g id="01 align center">
<path id="Vector" d="M12.5 0C10.0277 0 7.61099 0.733112 5.55538 2.10663C3.49976 3.48015 1.89761 5.43238 0.951511 7.71646C0.00541608 10.0005 -0.242126 12.5139 0.24019 14.9386C0.722505 17.3634 1.91301 19.5907 3.66117 21.3388C5.40933 23.087 7.63661 24.2775 10.0614 24.7598C12.4861 25.2421 14.9995 24.9946 17.2835 24.0485C19.5676 23.1024 21.5199 21.5002 22.8934 19.4446C24.2669 17.389 25 14.9723 25 12.5C24.9964 9.18589 23.6783 6.00855 21.3349 3.66512C18.9915 1.3217 15.8141 0.00358446 12.5 0V0ZM22.9167 12.5C22.9173 14.5304 22.3211 16.5162 21.2021 18.2104C20.3039 17.2106 19.8023 15.9169 19.7917 14.5729V12.5H13.5417C13.2654 12.5 13.0005 12.3903 12.8051 12.1949C12.6098 11.9996 12.5 11.7346 12.5 11.4583V10.4167H15.625V6.25H18.6604L19.8156 5.09479C20.7981 6.06154 21.5783 7.21421 22.1107 8.4856C22.6431 9.75698 22.9171 11.1216 22.9167 12.5V12.5ZM2.13438 13.5031L6.33959 17.7083H10.4167C10.6929 17.7083 10.9579 17.8181 11.1532 18.0134C11.3486 18.2088 11.4583 18.4737 11.4583 18.75V22.8635C9.06271 22.619 6.82542 21.5533 5.12597 19.8472C3.42653 18.1411 2.36957 15.8997 2.13438 13.5031V13.5031ZM13.5417 22.8635V18.75C13.5417 17.9212 13.2124 17.1263 12.6264 16.5403C12.0403 15.9542 11.2455 15.625 10.4167 15.625H7.20209L2.25313 10.676C2.55123 8.98146 3.26536 7.38739 4.33144 6.03686C5.39752 4.68632 6.7822 3.62157 8.36125 2.93814C9.9403 2.25471 11.6643 1.97397 13.3786 2.12113C15.0929 2.26828 16.7439 2.83871 18.1833 3.78125L17.7979 4.16667H13.5417V8.33333H10.4167V11.4583C10.4167 12.2871 10.7459 13.082 11.332 13.668C11.918 14.2541 12.7129 14.5833 13.5417 14.5833H17.7083C17.7059 16.5568 18.4814 18.4517 19.8667 19.8573C18.17 21.5615 15.9345 22.624 13.5417 22.8635V22.8635Z" fill="currentColor"/>
</g>
</svg>
